<svg xmlns="http://www.w3.org/2000/svg" viewBox="0 0 240 240"><defs><style>.cls-1{fill:#fcfdfd;}.cls-2{fill:#053f7c;}.cls-3{fill:#fdfdfd;}.cls-4{fill:#fb5657;}</style></defs><title>Asset 1</title><g id="Layer_2" data-name="Layer 2"><g id="Layer_1-2" data-name="Layer 1"><path class="cls-1" d="M240,240H0V0H240ZM1.93,119.88c0,20.74,0,41.48,0,62.22A46.05,46.05,0,0,0,2.75,190,58.18,58.18,0,0,0,21,222.9a56.55,56.55,0,0,0,21.6,12.33,53,53,0,0,0,15.5,2.61q61,0,122,0a67.22,67.22,0,0,0,7.37-.49,54.33,54.33,0,0,0,18.62-5.73,57.59,57.59,0,0,0,20.52-17.4,56,56,0,0,0,8.59-17,50.14,50.14,0,0,0,2.59-14.65q0-62.64,0-125.28a44,44,0,0,0-.78-7.58,58.49,58.49,0,0,0-5.44-16.13,57.85,57.85,0,0,0-12.8-16.73,56.55,56.55,0,0,0-21.6-12.33A51.68,51.68,0,0,0,182,1.93q-61.26,0-122.52,0A55.69,55.69,0,0,0,46.38,3.44,56.66,56.66,0,0,0,25.71,13,57.19,57.19,0,0,0,5.24,40.49,53.32,53.32,0,0,0,1.92,58.38Q1.94,89.13,1.93,119.88Z"/><path class="cls-2" d="M1.93,119.88q0-30.75,0-61.5A53.32,53.32,0,0,1,5.24,40.49,57.19,57.19,0,0,1,25.71,13,56.66,56.66,0,0,1,46.38,3.44,55.69,55.69,0,0,1,59.52,1.89Q120.78,2,182,1.93a51.68,51.68,0,0,1,15.14,2.6,56.55,56.55,0,0,1,21.6,12.33,57.85,57.85,0,0,1,12.8,16.73A58.49,58.49,0,0,1,237,49.72a44,44,0,0,1,.78,7.58q.06,62.64,0,125.28a50.14,50.14,0,0,1-2.59,14.65,56,56,0,0,1-8.59,17,57.59,57.59,0,0,1-20.52,17.4,54.33,54.33,0,0,1-18.62,5.73,67.22,67.22,0,0,1-7.37.49q-61,0-122,0a53,53,0,0,1-15.5-2.61A56.55,56.55,0,0,1,21,222.9,58.18,58.18,0,0,1,2.75,190,46.05,46.05,0,0,1,2,182.1C1.9,161.36,1.93,140.62,1.93,119.88Zm152,61.39a17.22,17.22,0,0,0,7.47-1.35,20.82,20.82,0,0,0,8.33-5.95c2.48-2.82,3.6-6.33,5.06-9.68,1.31-3,2.54-6.09,3.84-9.12,1.57-3.7,3.18-7.37,4.75-11.07s3.09-7.33,4.64-11,3.12-7.31,4.68-11q2.73-6.44,5.45-12.86c1.76-4.13,3.53-8.26,5.28-12.4,1.57-3.7,3.07-7.43,4.7-11.1A19.53,19.53,0,0,0,209,71.32c-2.4-7.21-7.35-11.95-14.83-13.65-8-1.83-14.71.67-20.1,6.75-2.9,3.27-4.05,7.46-5.77,11.34-1.59,3.6-3.07,7.25-4.6,10.87s-3.19,7.46-4.77,11.2c-1.47,3.47-2.92,7-4.4,10.43a.88.88,0,0,1-.59.5c-.19,0-.48-.27-.58-.48-.55-1.28-1-2.57-1.59-3.86q-2.29-5.44-4.6-10.88-2.72-6.37-5.44-12.73c-1.9-4.42-3.58-9-5.77-13.22a19.24,19.24,0,0,0-14.51-10.34,19.72,19.72,0,0,0-12.41,1.84A21.35,21.35,0,0,0,98.78,70.37c-1.56,3.71-3.08,7.42-4.64,11.12-1.79,4.21-3.63,8.4-5.41,12.61s-3.51,8.44-5.3,12.65c-2,4.75-4.11,9.49-6.13,14.25s-4,9.6-6,14.4c-2.64,6.27-5.37,12.5-7.91,18.81A18.42,18.42,0,0,0,63.8,169a19.54,19.54,0,0,0,14.09,11.65c6.92,1.6,12.91-.23,18.2-4.78,3.59-3.09,5.16-7.39,6.92-11.57s3.6-8.5,5.41-12.75l4.69-11.1c1.46-3.44,2.9-6.89,4.37-10.33.1-.22.38-.49.59-.49a.83.83,0,0,1,.6.46c1.25,2.92,2.47,5.86,3.71,8.79q2.28,5.45,4.59,10.89c1.57,3.69,3.16,7.38,4.73,11.07,1.28,3,2.34,6.11,3.85,9C139.4,177.22,145.55,181.09,153.91,181.27Zm-100-41.71a17,17,0,0,0,.87-1.48c1.07-2.57,2.1-5.16,3.18-7.73,3.83-9.12,7.64-18.25,11.52-27.35,1.32-3.11,2.81-6.14,4.26-9.2a64.63,64.63,0,0,0,2.86-5.86,22,22,0,0,0-2.73-20.61A22.36,22.36,0,0,0,59.1,57.56a22.31,22.31,0,0,0-18.18,3.93,23.39,23.39,0,0,0-9.6,16.59c-.62,4.94,1,9.45,2.56,14,.87,2.52,2,4.94,3.07,7.4q3.3,7.83,6.58,15.66,3.94,9.38,7.89,18.75C52.18,135.64,53,137.42,53.88,139.56Z"/><path class="cls-3" d="M153.91,181.27c-8.36-.18-14.51-4.05-18.36-11.43-1.51-2.88-2.57-6-3.85-9-1.57-3.69-3.16-7.38-4.73-11.07s-3.07-7.26-4.59-10.89c-1.24-2.93-2.46-5.87-3.71-8.79a.83.83,0,0,0-.6-.46c-.21,0-.49.27-.59.49-1.47,3.44-2.91,6.89-4.37,10.33l-4.69,11.1q-2.72,6.38-5.41,12.75c-1.76,4.18-3.33,8.48-6.92,11.57-5.29,4.55-11.28,6.38-18.2,4.78A19.54,19.54,0,0,1,63.8,169a18.42,18.42,0,0,1-.44-14.8c2.54-6.31,5.27-12.54,7.91-18.81,2-4.8,4-9.61,6-14.4s4.1-9.5,6.13-14.25c1.79-4.21,3.51-8.44,5.3-12.65s3.62-8.4,5.41-12.61c1.56-3.7,3.08-7.41,4.64-11.12a21.35,21.35,0,0,1,10.28-11.28,19.72,19.72,0,0,1,12.41-1.84A19.24,19.24,0,0,1,136,67.59c2.19,4.27,3.87,8.8,5.77,13.22q2.73,6.36,5.44,12.73,2.31,5.44,4.6,10.88c.54,1.29,1,2.58,1.59,3.86.1.21.39.48.58.48a.88.88,0,0,0,.59-.5c1.48-3.47,2.93-7,4.4-10.43,1.58-3.74,3.18-7.46,4.77-11.2s3-7.27,4.6-10.87c1.72-3.88,2.87-8.07,5.77-11.34,5.39-6.08,12.08-8.58,20.1-6.75,7.48,1.7,12.43,6.44,14.83,13.65a19.53,19.53,0,0,1-.91,14.47c-1.63,3.67-3.13,7.4-4.7,11.1-1.75,4.14-3.52,8.27-5.28,12.4s-3.63,8.57-5.45,12.86c-1.56,3.65-3.13,7.3-4.68,11s-3.08,7.33-4.64,11-3.18,7.37-4.75,11.07c-1.3,3-2.53,6.1-3.84,9.12-1.46,3.35-2.58,6.86-5.06,9.68a20.82,20.82,0,0,1-8.33,5.95A17.22,17.22,0,0,1,153.91,181.27Z"/><path class="cls-4" d="M53.88,139.56c-.92-2.14-1.7-3.92-2.46-5.71q-3.95-9.36-7.89-18.75Q40.25,107.27,37,99.44c-1-2.46-2.2-4.88-3.07-7.4-1.57-4.51-3.18-9-2.56-14a23.39,23.39,0,0,1,9.6-16.59A22.31,22.31,0,0,1,59.1,57.56a22.36,22.36,0,0,1,14.74,9.77,22,22,0,0,1,2.73,20.61,64.63,64.63,0,0,1-2.86,5.86c-1.45,3.06-2.94,6.09-4.26,9.2-3.88,9.1-7.69,18.23-11.52,27.35-1.08,2.57-2.11,5.16-3.18,7.73A17,17,0,0,1,53.88,139.56Z"/></g></g></svg>